<svg width="216" height="216" viewBox="0 0 216 216" fill="none" xmlns="http://www.w3.org/2000/svg">
<g filter="url(#filter0_d_0_1)">
<rect x="8" y="8" width="200" height="200" rx="20" fill="black"/>
</g>
<path d="M67.6321 173V165.727H70.544C71.0791 165.727 71.5253 165.807 71.8828 165.965C72.2403 166.124 72.509 166.344 72.6889 166.626C72.8688 166.905 72.9588 167.227 72.9588 167.592C72.9588 167.876 72.902 168.125 72.7884 168.341C72.6747 168.554 72.5185 168.729 72.3196 168.866C72.1231 169.001 71.8982 169.097 71.6449 169.154V169.225C71.9219 169.237 72.1811 169.315 72.4226 169.46C72.6664 169.604 72.8641 169.806 73.0156 170.067C73.1671 170.325 73.2429 170.633 73.2429 170.99C73.2429 171.376 73.147 171.72 72.9553 172.023C72.7659 172.324 72.4853 172.562 72.1136 172.737C71.742 172.912 71.2839 173 70.7393 173H67.6321ZM69.1697 171.743H70.4233C70.8518 171.743 71.1643 171.661 71.3608 171.498C71.5573 171.332 71.6555 171.112 71.6555 170.837C71.6555 170.636 71.607 170.459 71.5099 170.305C71.4129 170.151 71.2744 170.03 71.0945 169.942C70.9169 169.855 70.705 169.811 70.4588 169.811H69.1697V171.743ZM69.1697 168.771H70.3097C70.5204 168.771 70.7074 168.734 70.8707 168.661C71.0365 168.585 71.1667 168.478 71.2614 168.341C71.3584 168.204 71.407 168.039 71.407 167.847C71.407 167.585 71.3134 167.373 71.1264 167.212C70.9418 167.051 70.679 166.97 70.3381 166.97H69.1697V168.771ZM77.7129 170.678V167.545H79.2257V173H77.7733V172.009H77.7164C77.5933 172.329 77.3886 172.586 77.1021 172.78C76.818 172.974 76.4712 173.071 76.0616 173.071C75.697 173.071 75.3762 172.988 75.0993 172.822C74.8223 172.657 74.6056 172.421 74.4494 172.116C74.2955 171.81 74.2174 171.445 74.215 171.018V167.545H75.7278V170.749C75.7302 171.071 75.8166 171.325 75.987 171.512C76.1575 171.699 76.3859 171.793 76.6724 171.793C76.8547 171.793 77.0252 171.751 77.1838 171.668C77.3424 171.583 77.4702 171.458 77.5673 171.292C77.6667 171.126 77.7153 170.921 77.7129 170.678ZM80.4357 173V167.545H81.9485V173H80.4357ZM81.1957 166.842C80.9708 166.842 80.7778 166.768 80.6168 166.619C80.4582 166.467 80.3789 166.286 80.3789 166.075C80.3789 165.867 80.4582 165.688 80.6168 165.539C80.7778 165.388 80.9708 165.312 81.1957 165.312C81.4206 165.312 81.6123 165.388 81.771 165.539C81.9319 165.688 82.0124 165.867 82.0124 166.075C82.0124 166.286 81.9319 166.467 81.771 166.619C81.6123 166.768 81.4206 166.842 81.1957 166.842ZM84.6731 165.727V173H83.1603V165.727H84.6731ZM87.8949 173.089C87.4806 173.089 87.1054 172.982 86.7692 172.769C86.4354 172.554 86.1702 172.238 85.9737 171.821C85.7796 171.402 85.6825 170.888 85.6825 170.28C85.6825 169.655 85.7831 169.135 85.9844 168.721C86.1856 168.304 86.4531 167.993 86.7869 167.787C87.1231 167.579 87.4912 167.474 87.8913 167.474C88.1967 167.474 88.4512 167.527 88.6548 167.631C88.8608 167.732 89.0265 167.86 89.152 168.014C89.2798 168.166 89.3769 168.315 89.4432 168.462H89.4893V165.727H90.9986V173H89.5071V172.126H89.4432C89.3722 172.278 89.2715 172.428 89.1413 172.577C89.0135 172.724 88.8466 172.846 88.6406 172.943C88.437 173.04 88.1884 173.089 87.8949 173.089ZM88.3743 171.885C88.6181 171.885 88.8241 171.819 88.9922 171.686C89.1626 171.551 89.2929 171.363 89.3828 171.121C89.4751 170.88 89.5213 170.597 89.5213 170.273C89.5213 169.948 89.4763 169.667 89.3864 169.428C89.2964 169.188 89.1662 169.004 88.9957 168.874C88.8253 168.743 88.6181 168.678 88.3743 168.678C88.1257 168.678 87.9162 168.746 87.7457 168.881C87.5753 169.016 87.4463 169.203 87.3587 169.442C87.2711 169.681 87.2273 169.958 87.2273 170.273C87.2273 170.59 87.2711 170.871 87.3587 171.114C87.4486 171.356 87.5777 171.545 87.7457 171.683C87.9162 171.817 88.1257 171.885 88.3743 171.885ZM95.4908 175.045C95.299 175.045 95.1191 175.03 94.951 174.999C94.7853 174.971 94.648 174.934 94.5391 174.889L94.88 173.76C95.0575 173.814 95.2173 173.844 95.3594 173.849C95.5038 173.853 95.6281 173.82 95.7322 173.749C95.8388 173.678 95.9252 173.558 95.9915 173.387L96.0803 173.156L94.1236 167.545H95.7145L96.8438 171.551H96.9006L98.0405 167.545H99.642L97.522 173.589C97.4202 173.883 97.2817 174.139 97.1065 174.357C96.9337 174.577 96.7147 174.746 96.4496 174.864C96.1844 174.985 95.8648 175.045 95.4908 175.045ZM102.705 173.107C102.153 173.107 101.676 172.989 101.274 172.755C100.874 172.518 100.565 172.189 100.347 171.768C100.129 171.344 100.02 170.853 100.02 170.294C100.02 169.731 100.129 169.238 100.347 168.817C100.565 168.393 100.874 168.064 101.274 167.83C101.676 167.593 102.153 167.474 102.705 167.474C103.257 167.474 103.732 167.593 104.132 167.83C104.535 168.064 104.845 168.393 105.063 168.817C105.281 169.238 105.39 169.731 105.39 170.294C105.39 170.853 105.281 171.344 105.063 171.768C104.845 172.189 104.535 172.518 104.132 172.755C103.732 172.989 103.257 173.107 102.705 173.107ZM102.712 171.935C102.963 171.935 103.172 171.864 103.341 171.722C103.509 171.577 103.635 171.381 103.721 171.132C103.808 170.884 103.852 170.601 103.852 170.283C103.852 169.966 103.808 169.683 103.721 169.435C103.635 169.186 103.509 168.99 103.341 168.845C103.172 168.701 102.963 168.629 102.712 168.629C102.459 168.629 102.246 168.701 102.073 168.845C101.902 168.99 101.773 169.186 101.686 169.435C101.6 169.683 101.558 169.966 101.558 170.283C101.558 170.601 101.6 170.884 101.686 171.132C101.773 171.381 101.902 171.577 102.073 171.722C102.246 171.864 102.459 171.935 102.712 171.935ZM109.871 170.678V167.545H111.384V173H109.931V172.009H109.875C109.752 172.329 109.547 172.586 109.26 172.78C108.976 172.974 108.629 173.071 108.22 173.071C107.855 173.071 107.534 172.988 107.257 172.822C106.98 172.657 106.764 172.421 106.608 172.116C106.454 171.81 106.376 171.445 106.373 171.018V167.545H107.886V170.749C107.888 171.071 107.975 171.325 108.145 171.512C108.316 171.699 108.544 171.793 108.831 171.793C109.013 171.793 109.183 171.751 109.342 171.668C109.501 171.583 109.628 171.458 109.725 171.292C109.825 171.126 109.873 170.921 109.871 170.678ZM112.594 173V167.545H114.061V168.497H114.117C114.217 168.159 114.384 167.903 114.618 167.73C114.852 167.555 115.122 167.467 115.428 167.467C115.503 167.467 115.585 167.472 115.673 167.482C115.76 167.491 115.837 167.504 115.904 167.521V168.863C115.833 168.842 115.734 168.823 115.609 168.806C115.483 168.79 115.369 168.781 115.264 168.781C115.042 168.781 114.843 168.83 114.668 168.927C114.495 169.022 114.358 169.154 114.256 169.325C114.156 169.495 114.107 169.692 114.107 169.914V173H112.594ZM121.933 167.545V168.682H118.567V167.545H121.933ZM119.338 173V167.151C119.338 166.756 119.414 166.428 119.568 166.168C119.725 165.907 119.938 165.712 120.208 165.582C120.477 165.451 120.784 165.386 121.127 165.386C121.359 165.386 121.571 165.404 121.763 165.44C121.957 165.475 122.102 165.507 122.196 165.536L121.926 166.672C121.867 166.653 121.794 166.635 121.706 166.619C121.621 166.602 121.533 166.594 121.443 166.594C121.221 166.594 121.066 166.646 120.978 166.75C120.891 166.852 120.847 166.995 120.847 167.18V173H119.338ZM126.355 170.678V167.545H127.868V173H126.416V172.009H126.359C126.236 172.329 126.031 172.586 125.745 172.78C125.461 172.974 125.114 173.071 124.704 173.071C124.34 173.071 124.019 172.988 123.742 172.822C123.465 172.657 123.248 172.421 123.092 172.116C122.938 171.81 122.86 171.445 122.858 171.018V167.545H124.37V170.749C124.373 171.071 124.459 171.325 124.63 171.512C124.8 171.699 125.029 171.793 125.315 171.793C125.497 171.793 125.668 171.751 125.826 171.668C125.985 171.583 126.113 171.458 126.21 171.292C126.309 171.126 126.358 170.921 126.355 170.678ZM131.98 167.545V168.682H128.695V167.545H131.98ZM129.441 166.239H130.953V171.324C130.953 171.464 130.975 171.572 131.017 171.651C131.06 171.726 131.119 171.78 131.195 171.81C131.273 171.841 131.363 171.857 131.465 171.857C131.536 171.857 131.607 171.851 131.678 171.839C131.749 171.825 131.803 171.814 131.841 171.807L132.079 172.933C132.003 172.956 131.897 172.983 131.759 173.014C131.622 173.047 131.455 173.067 131.259 173.075C130.894 173.089 130.575 173.04 130.3 172.929C130.028 172.818 129.816 172.645 129.664 172.411C129.513 172.176 129.438 171.88 129.441 171.523V166.239ZM136.463 170.678V167.545H137.976V173H136.523V172.009H136.466C136.343 172.329 136.139 172.586 135.852 172.78C135.568 172.974 135.221 173.071 134.812 173.071C134.447 173.071 134.126 172.988 133.849 172.822C133.572 172.657 133.356 172.421 133.199 172.116C133.046 171.81 132.967 171.445 132.965 171.018V167.545H134.478V170.749C134.48 171.071 134.567 171.325 134.737 171.512C134.907 171.699 135.136 171.793 135.422 171.793C135.605 171.793 135.775 171.751 135.934 171.668C136.092 171.583 136.22 171.458 136.317 171.292C136.417 171.126 136.465 170.921 136.463 170.678ZM139.186 173V167.545H140.652V168.497H140.709C140.809 168.159 140.975 167.903 141.21 167.73C141.444 167.555 141.714 167.467 142.02 167.467C142.095 167.467 142.177 167.472 142.265 167.482C142.352 167.491 142.429 167.504 142.495 167.521V168.863C142.424 168.842 142.326 168.823 142.201 168.806C142.075 168.79 141.96 168.781 141.856 168.781C141.634 168.781 141.435 168.83 141.26 168.927C141.087 169.022 140.949 169.154 140.848 169.325C140.748 169.495 140.699 169.692 140.699 169.914V173H139.186ZM145.509 173.107C144.948 173.107 144.465 172.993 144.061 172.766C143.658 172.536 143.348 172.212 143.13 171.793C142.912 171.371 142.803 170.873 142.803 170.298C142.803 169.737 142.912 169.244 143.13 168.82C143.348 168.397 143.655 168.066 144.05 167.83C144.448 167.593 144.914 167.474 145.449 167.474C145.809 167.474 146.144 167.532 146.454 167.648C146.767 167.762 147.039 167.934 147.271 168.163C147.505 168.393 147.687 168.682 147.818 169.03C147.948 169.375 148.013 169.78 148.013 170.244V170.66H143.407V169.722H146.589C146.589 169.504 146.542 169.312 146.447 169.143C146.352 168.975 146.221 168.844 146.053 168.749C145.887 168.652 145.694 168.604 145.474 168.604C145.244 168.604 145.041 168.657 144.863 168.763C144.688 168.868 144.551 169.009 144.451 169.186C144.352 169.361 144.301 169.557 144.298 169.772V170.663C144.298 170.933 144.348 171.166 144.448 171.363C144.549 171.559 144.693 171.711 144.877 171.817C145.062 171.924 145.281 171.977 145.534 171.977C145.702 171.977 145.856 171.954 145.996 171.906C146.136 171.859 146.255 171.788 146.355 171.693C146.454 171.598 146.53 171.482 146.582 171.345L147.981 171.438C147.91 171.774 147.764 172.067 147.544 172.318C147.326 172.567 147.045 172.761 146.699 172.901C146.356 173.038 145.959 173.107 145.509 173.107Z" fill="white"/>
<path d="M97.576 71.6364V108H90.9354L75.1151 85.1129H74.8487V108H67.1605V71.6364H73.9077L89.6037 94.5057H89.9233V71.6364H97.576ZM110.196 108H101.957L114.51 71.6364H124.418L136.954 108H128.715L119.606 79.946H119.322L110.196 108ZM109.681 93.7067H129.141V99.7081H109.681V93.7067ZM149.019 71.6364V108H141.33V71.6364H149.019Z" fill="white"/>
<defs>
<filter id="filter0_d_0_1" x="0" y="0" width="216" height="216" filterUnits="userSpaceOnUse" color-interpolation-filters="sRGB">
<feFlood flood-opacity="0" result="BackgroundImageFix"/>
<feColorMatrix in="SourceAlpha" type="matrix" values="0 0 0 0 0 0 0 0 0 0 0 0 0 0 0 0 0 0 127 0" result="hardAlpha"/>
<feMorphology radius="4" operator="dilate" in="SourceAlpha" result="effect1_dropShadow_0_1"/>
<feOffset/>
<feGaussianBlur stdDeviation="2"/>
<feComposite in2="hardAlpha" operator="out"/>
<feColorMatrix type="matrix" values="0 0 0 0 1 0 0 0 0 1 0 0 0 0 1 0 0 0 0.25 0"/>
<feBlend mode="normal" in2="BackgroundImageFix" result="effect1_dropShadow_0_1"/>
<feBlend mode="normal" in="SourceGraphic" in2="effect1_dropShadow_0_1" result="shape"/>
</filter>
</defs>
</svg>
